<svg width="188" height="38" viewBox="0 0 188 38" fill="none" xmlns="http://www.w3.org/2000/svg">
<path d="M24.256 37.336C23.008 37.336 21.616 37.096 20.08 36.616C18.576 36.104 17.056 35.432 15.52 34.6C14.016 33.768 12.64 32.856 11.392 31.864C10.144 30.872 9.136 29.864 8.368 28.84C7.6 27.816 7.216 26.872 7.216 26.008C7.216 24.6 7.616 23.208 8.416 21.832C9.216 20.456 10.256 19.16 11.536 17.944C12.816 16.728 14.192 15.656 15.664 14.728C17.136 13.768 18.576 13.032 19.984 12.52C21.392 11.976 22.592 11.704 23.584 11.704C24.992 11.704 26.112 12.056 26.944 12.76C27.776 13.464 28.192 14.472 28.192 15.784C28.192 16.776 27.92 17.608 27.376 18.28C26.864 18.92 25.792 19.48 24.16 19.96C22.976 20.312 21.904 20.712 20.944 21.16C19.984 21.576 19.152 22.008 18.448 22.456C17.776 22.872 17.264 23.272 16.912 23.656C16.56 24.04 16.384 24.344 16.384 24.568C16.384 24.92 16.64 25.368 17.152 25.912C17.664 26.424 18.528 26.968 19.744 27.544C20.992 28.12 22.688 28.664 24.832 29.176C26.048 29.432 26.912 29.976 27.424 30.808C27.936 31.64 28.192 32.504 28.192 33.4C28.192 34.584 27.856 35.544 27.184 36.28C26.544 36.984 25.568 37.336 24.256 37.336ZM5.632 37.48C4.8 37.48 4 37.288 3.232 36.904C2.464 36.52 1.84 35.816 1.36 34.792C0.88 33.768 0.64 32.312 0.64 30.424C0.64 29.208 0.752 27.624 0.976 25.672C1.2 23.688 1.408 21.464 1.6 19C1.824 16.536 1.936 13.992 1.936 11.368C1.936 10.28 1.904 9.368 1.84 8.632C1.808 7.864 1.76 7.224 1.696 6.712C1.664 6.168 1.616 5.72 1.552 5.368C1.52 4.984 1.504 4.632 1.504 4.312C1.504 3.16 1.824 2.248 2.464 1.576C3.104 0.871998 3.984 0.519998 5.104 0.519998C6.288 0.519998 7.264 0.855998 8.032 1.528C8.8 2.2 9.376 3.288 9.76 4.792C10.144 6.296 10.336 8.296 10.336 10.792C10.336 11.976 10.272 13.144 10.144 14.296C10.048 15.448 9.92 16.584 9.76 17.704C9.632 18.792 9.488 19.864 9.328 20.92C9.168 21.976 9.024 23.016 8.896 24.04C8.8 25.032 8.752 26.008 8.752 26.968C8.752 28.344 8.784 29.56 8.848 30.616C8.944 31.64 8.992 32.696 8.992 33.784C8.992 35.064 8.704 36.008 8.128 36.616C7.552 37.192 6.72 37.48 5.632 37.48ZM40.0454 37.48C38.3174 37.48 36.7974 37.176 35.4854 36.568C34.1734 35.96 33.1494 35.112 32.4134 34.024C31.6774 32.904 31.3094 31.608 31.3094 30.136C31.3094 28.472 31.5814 26.776 32.1254 25.048C32.7014 23.288 33.4854 21.624 34.4774 20.056C35.4694 18.456 36.6054 17.032 37.8854 15.784C39.1654 14.536 40.5254 13.56 41.9654 12.856C43.4054 12.12 44.8454 11.752 46.2854 11.752C47.6294 11.752 48.7654 12.2 49.6934 13.096C50.6214 13.96 51.0854 15.208 51.0854 16.84C51.0854 17.384 50.9254 17.816 50.6054 18.136C50.3174 18.424 49.9654 18.616 49.5494 18.712C47.5654 19.064 45.8054 19.864 44.2694 21.112C42.7334 22.36 41.5174 23.848 40.6214 25.576C39.7574 27.272 39.3254 29.048 39.3254 30.904C39.3254 31.352 39.3574 31.768 39.4214 32.152C39.4854 32.504 39.5974 32.952 39.7574 33.496L36.2054 28.024C37.0054 28.568 37.7094 28.936 38.3174 29.128C38.9254 29.32 39.6134 29.416 40.3814 29.416C41.8854 29.416 43.3094 28.472 44.6534 26.584C45.9974 24.664 46.9414 21.864 47.4854 18.184C47.6134 17.352 47.9974 16.712 48.6374 16.264C49.3094 15.816 50.0454 15.592 50.8454 15.592C52.2214 15.592 53.4054 15.944 54.3974 16.648C55.3894 17.32 56.0934 18.152 56.5094 19.144C57.1494 20.52 57.7094 21.8 58.1894 22.984C58.7014 24.168 59.2774 25.32 59.9174 26.44C60.5894 27.56 61.4854 28.728 62.6054 29.944C63.0854 30.456 63.3254 31.128 63.3254 31.96C63.3574 32.76 63.1974 33.576 62.8454 34.408C62.5254 35.24 62.0294 35.944 61.3574 36.52C60.7174 37.064 59.9334 37.336 59.0054 37.336C58.3974 37.336 57.9014 37.224 57.5174 37C57.1334 36.776 56.8134 36.52 56.5574 36.232C55.8534 35.368 55.2294 34.552 54.6854 33.784C54.1414 32.984 53.6294 32.168 53.1494 31.336C52.6694 30.472 52.2054 29.528 51.7574 28.504C51.3414 27.48 50.8934 26.328 50.4134 25.048L53.2934 24.76C52.5894 27.192 51.7414 29.224 50.7494 30.856C49.7574 32.488 48.6854 33.8 47.5334 34.792C46.3814 35.752 45.1654 36.44 43.8854 36.856C42.6374 37.272 41.3574 37.48 40.0454 37.48ZM78.0295 37.624C75.0855 37.624 72.7175 37.016 70.9255 35.8C69.1335 34.584 67.8375 32.872 67.0375 30.664C66.2695 28.456 65.8855 25.896 65.8855 22.984C65.8855 21.416 65.9495 20.024 66.0775 18.808C66.2375 17.592 66.3815 16.424 66.5095 15.304C66.6375 14.152 66.7015 12.904 66.7015 11.56C66.7015 10.28 66.6215 9.24 66.4615 8.44C66.3015 7.64 66.2215 6.856 66.2215 6.088C66.2215 5.192 66.5095 4.392 67.0855 3.688C67.6935 2.984 68.6535 2.632 69.9655 2.632C71.5655 2.632 72.8295 3.192 73.7575 4.312C74.6855 5.432 75.1495 7.4 75.1495 10.216C75.1495 11.016 75.1015 11.864 75.0055 12.76C74.9095 13.656 74.7975 14.616 74.6695 15.64C74.5415 16.632 74.4295 17.72 74.3335 18.904C74.2375 20.056 74.1895 21.32 74.1895 22.696C74.1895 24.36 74.3815 25.688 74.7655 26.68C75.1495 27.672 75.7095 28.376 76.4455 28.792C77.2135 29.208 78.1575 29.416 79.2775 29.416C80.0135 29.416 80.6215 29.352 81.1015 29.224C81.5815 29.064 82.0135 28.92 82.3975 28.792C82.7815 28.632 83.1975 28.552 83.6455 28.552C84.5095 28.552 85.1655 28.808 85.6135 29.32C86.0615 29.832 86.2855 30.632 86.2855 31.72C86.2855 33.384 85.6455 34.792 84.3655 35.944C83.0855 37.064 80.9735 37.624 78.0295 37.624ZM73.0375 21.304C71.5655 21.912 70.4135 21.88 69.5815 21.208C68.7815 20.504 68.3815 19.512 68.3815 18.232C68.3815 17.208 68.5575 16.28 68.9095 15.448C69.2615 14.616 70.1735 13.928 71.6455 13.384C72.9895 12.904 74.4775 12.52 76.1095 12.232C77.7735 11.944 79.3575 11.8 80.8615 11.8C83.0375 11.8 84.5255 12.216 85.3255 13.048C86.1575 13.848 86.5735 14.856 86.5735 16.072C86.5735 16.968 86.2855 17.672 85.7095 18.184C85.1655 18.696 84.4615 18.984 83.5975 19.048C82.1255 19.144 80.8135 19.272 79.6615 19.432C78.5415 19.592 77.4695 19.816 76.4455 20.104C75.4215 20.392 74.2855 20.792 73.0375 21.304ZM97.5141 37.48C95.7861 37.48 94.2661 37.176 92.9541 36.568C91.6421 35.96 90.6181 35.112 89.8821 34.024C89.1461 32.904 88.7781 31.608 88.7781 30.136C88.7781 28.472 89.0501 26.776 89.5941 25.048C90.1701 23.288 90.9541 21.624 91.9461 20.056C92.9381 18.456 94.0741 17.032 95.3541 15.784C96.6341 14.536 97.9941 13.56 99.4341 12.856C100.874 12.12 102.314 11.752 103.754 11.752C105.098 11.752 106.234 12.2 107.162 13.096C108.09 13.96 108.554 15.208 108.554 16.84C108.554 17.384 108.394 17.816 108.074 18.136C107.786 18.424 107.434 18.616 107.018 18.712C105.034 19.064 103.274 19.864 101.738 21.112C100.202 22.36 98.9861 23.848 98.0901 25.576C97.2261 27.272 96.7941 29.048 96.7941 30.904C96.7941 31.352 96.8261 31.768 96.8901 32.152C96.9541 32.504 97.0661 32.952 97.2261 33.496L93.6741 28.024C94.4741 28.568 95.1781 28.936 95.7861 29.128C96.3941 29.32 97.0821 29.416 97.8501 29.416C99.3541 29.416 100.778 28.472 102.122 26.584C103.466 24.664 104.41 21.864 104.954 18.184C105.082 17.352 105.466 16.712 106.106 16.264C106.778 15.816 107.514 15.592 108.314 15.592C109.69 15.592 110.874 15.944 111.866 16.648C112.858 17.32 113.562 18.152 113.978 19.144C114.618 20.52 115.178 21.8 115.658 22.984C116.17 24.168 116.746 25.32 117.386 26.44C118.058 27.56 118.954 28.728 120.074 29.944C120.554 30.456 120.794 31.128 120.794 31.96C120.826 32.76 120.666 33.576 120.314 34.408C119.994 35.24 119.498 35.944 118.826 36.52C118.186 37.064 117.402 37.336 116.474 37.336C115.866 37.336 115.37 37.224 114.986 37C114.602 36.776 114.282 36.52 114.026 36.232C113.322 35.368 112.698 34.552 112.154 33.784C111.61 32.984 111.098 32.168 110.618 31.336C110.138 30.472 109.674 29.528 109.226 28.504C108.81 27.48 108.362 26.328 107.882 25.048L110.762 24.76C110.058 27.192 109.21 29.224 108.218 30.856C107.226 32.488 106.154 33.8 105.002 34.792C103.85 35.752 102.634 36.44 101.354 36.856C100.106 37.272 98.8261 37.48 97.5141 37.48ZM149.215 37.48C147.743 37.48 146.479 36.92 145.423 35.8C144.367 34.68 143.551 33.032 142.975 30.856C142.431 28.648 142.159 25.912 142.159 22.648C142.159 22.136 142.143 21.688 142.111 21.304C142.079 20.92 141.999 20.584 141.871 20.296C141.775 19.976 141.615 19.704 141.391 19.48C141.167 19.224 140.879 19 140.527 18.808C141.391 18.84 142.111 18.92 142.687 19.048C143.295 19.144 143.743 19.4 144.031 19.816C144.319 20.2 144.415 20.856 144.319 21.784C143.711 21.048 143.199 20.552 142.783 20.296C142.399 20.008 141.983 19.864 141.535 19.864C140.927 19.864 140.239 20.2 139.471 20.872C138.703 21.544 137.887 22.52 137.023 23.8C136.191 25.048 135.359 26.552 134.527 28.312C133.727 30.072 132.959 32.024 132.223 34.168C131.807 35.448 131.327 36.312 130.783 36.76C130.239 37.208 129.471 37.432 128.479 37.432C126.815 37.432 125.615 36.712 124.879 35.272C124.143 33.832 123.775 31.992 123.775 29.752C123.775 28.184 123.839 26.824 123.967 25.672C124.127 24.52 124.287 23.448 124.447 22.456C124.639 21.464 124.799 20.456 124.927 19.432C125.087 18.408 125.167 17.272 125.167 16.024C125.167 14.712 125.455 13.752 126.031 13.144C126.639 12.536 127.535 12.232 128.719 12.232C129.903 12.232 130.815 12.584 131.455 13.288C132.127 13.992 132.463 15.144 132.463 16.744C132.463 17.64 132.399 18.424 132.271 19.096C132.143 19.736 131.999 20.424 131.839 21.16C131.679 21.864 131.535 22.76 131.407 23.848C131.279 24.936 131.215 26.344 131.215 28.072L129.151 25.384C130.239 22.344 131.519 19.832 132.991 17.848C134.495 15.832 136.079 14.328 137.743 13.336C139.407 12.344 141.023 11.848 142.591 11.848C144.191 11.848 145.503 12.152 146.527 12.76C147.583 13.368 148.367 14.232 148.879 15.352C149.391 16.44 149.647 17.736 149.647 19.24C149.647 21.416 149.711 23.24 149.839 24.712C149.999 26.184 150.239 27.368 150.559 28.264C150.911 29.16 151.343 29.88 151.855 30.424C152.335 30.904 152.703 31.4 152.959 31.912C153.215 32.424 153.343 33.08 153.343 33.88C153.343 34.808 152.975 35.64 152.239 36.376C151.535 37.112 150.527 37.48 149.215 37.48ZM164.03 37.48C162.302 37.48 160.782 37.176 159.47 36.568C158.158 35.96 157.134 35.112 156.398 34.024C155.662 32.904 155.294 31.608 155.294 30.136C155.294 28.472 155.566 26.776 156.11 25.048C156.686 23.288 157.47 21.624 158.462 20.056C159.454 18.456 160.59 17.032 161.87 15.784C163.15 14.536 164.51 13.56 165.95 12.856C167.39 12.12 168.83 11.752 170.27 11.752C171.614 11.752 172.75 12.2 173.678 13.096C174.606 13.96 175.07 15.208 175.07 16.84C175.07 17.384 174.91 17.816 174.59 18.136C174.302 18.424 173.95 18.616 173.534 18.712C171.55 19.064 169.79 19.864 168.254 21.112C166.718 22.36 165.502 23.848 164.606 25.576C163.742 27.272 163.31 29.048 163.31 30.904C163.31 31.352 163.342 31.768 163.406 32.152C163.47 32.504 163.582 32.952 163.742 33.496L160.19 28.024C160.99 28.568 161.694 28.936 162.302 29.128C162.91 29.32 163.598 29.416 164.366 29.416C165.87 29.416 167.294 28.472 168.638 26.584C169.982 24.664 170.926 21.864 171.47 18.184C171.598 17.352 171.982 16.712 172.622 16.264C173.294 15.816 174.03 15.592 174.83 15.592C176.206 15.592 177.39 15.944 178.382 16.648C179.374 17.32 180.078 18.152 180.494 19.144C181.134 20.52 181.694 21.8 182.174 22.984C182.686 24.168 183.262 25.32 183.902 26.44C184.574 27.56 185.47 28.728 186.59 29.944C187.07 30.456 187.31 31.128 187.31 31.96C187.342 32.76 187.182 33.576 186.83 34.408C186.51 35.24 186.014 35.944 185.342 36.52C184.702 37.064 183.918 37.336 182.99 37.336C182.382 37.336 181.886 37.224 181.502 37C181.118 36.776 180.798 36.52 180.542 36.232C179.838 35.368 179.214 34.552 178.67 33.784C178.126 32.984 177.614 32.168 177.134 31.336C176.654 30.472 176.19 29.528 175.742 28.504C175.326 27.48 174.878 26.328 174.398 25.048L177.278 24.76C176.318 27.992 175.134 30.536 173.726 32.392C172.318 34.248 170.782 35.56 169.118 36.328C167.454 37.096 165.758 37.48 164.03 37.48Z" fill="white"/>
</svg>
