<svg width="374" height="75" viewBox="0 0 374 75" fill="none" xmlns="http://www.w3.org/2000/svg">
<path d="M47.512 73.672C45.016 73.672 42.232 73.192 39.16 72.232C36.152 71.208 33.112 69.864 30.04 68.2C27.032 66.536 24.28 64.712 21.784 62.728C19.288 60.744 17.272 58.728 15.736 56.68C14.2 54.632 13.432 52.744 13.432 51.016C13.432 48.2 14.232 45.416 15.832 42.664C17.432 39.912 19.512 37.32 22.072 34.888C24.632 32.456 27.384 30.312 30.328 28.456C33.272 26.536 36.152 25.064 38.968 24.04C41.784 22.952 44.184 22.408 46.168 22.408C48.984 22.408 51.224 23.112 52.888 24.52C54.552 25.928 55.384 27.944 55.384 30.568C55.384 32.552 54.84 34.216 53.752 35.56C52.728 36.84 50.584 37.96 47.32 38.92C44.952 39.624 42.808 40.424 40.888 41.32C38.968 42.152 37.304 43.016 35.896 43.912C34.552 44.744 33.528 45.544 32.824 46.312C32.12 47.08 31.768 47.688 31.768 48.136C31.768 48.84 32.28 49.736 33.304 50.824C34.328 51.848 36.056 52.936 38.488 54.088C40.984 55.24 44.376 56.328 48.664 57.352C51.096 57.864 52.824 58.952 53.848 60.616C54.872 62.28 55.384 64.008 55.384 65.8C55.384 68.168 54.712 70.088 53.368 71.56C52.088 72.968 50.136 73.672 47.512 73.672ZM10.264 73.96C8.6 73.96 7 73.576 5.464 72.808C3.928 72.04 2.68 70.632 1.72 68.584C0.76 66.536 0.28 63.624 0.28 59.848C0.28 57.416 0.504 54.248 0.952 50.344C1.4 46.376 1.816 41.928 2.2 37C2.648 32.072 2.872 26.984 2.872 21.736C2.872 19.56 2.808 17.736 2.68 16.264C2.616 14.728 2.52 13.448 2.392 12.424C2.328 11.336 2.232 10.44 2.104 9.736C2.04 8.968 2.008 8.264 2.008 7.62399C2.008 5.32 2.648 3.496 3.928 2.152C5.208 0.743996 6.968 0.0399952 9.208 0.0399952C11.576 0.0399952 13.528 0.711996 15.064 2.056C16.6 3.4 17.752 5.576 18.52 8.584C19.288 11.592 19.672 15.592 19.672 20.584C19.672 22.952 19.544 25.288 19.288 27.592C19.096 29.896 18.84 32.168 18.52 34.408C18.264 36.584 17.976 38.728 17.656 40.84C17.336 42.952 17.048 45.032 16.792 47.08C16.6 49.064 16.504 51.016 16.504 52.936C16.504 55.688 16.568 58.12 16.696 60.232C16.888 62.28 16.984 64.392 16.984 66.568C16.984 69.128 16.408 71.016 15.256 72.232C14.104 73.384 12.44 73.96 10.264 73.96ZM79.0908 73.96C75.6348 73.96 72.5948 73.352 69.9708 72.136C67.3468 70.92 65.2988 69.224 63.8268 67.048C62.3548 64.808 61.6188 62.216 61.6188 59.272C61.6188 55.944 62.1628 52.552 63.2508 49.096C64.4028 45.576 65.9708 42.248 67.9548 39.112C69.9388 35.912 72.2108 33.064 74.7708 30.568C77.3308 28.072 80.0508 26.12 82.9308 24.712C85.8108 23.24 88.6908 22.504 91.5708 22.504C94.2588 22.504 96.5308 23.4 98.3868 25.192C100.243 26.92 101.171 29.416 101.171 32.68C101.171 33.768 100.851 34.632 100.211 35.272C99.6348 35.848 98.9308 36.232 98.0988 36.424C94.1308 37.128 90.6108 38.728 87.5388 41.224C84.4668 43.72 82.0348 46.696 80.2428 50.152C78.5148 53.544 77.6508 57.096 77.6508 60.808C77.6508 61.704 77.7148 62.536 77.8428 63.304C77.9708 64.008 78.1948 64.904 78.5148 65.992L71.4108 55.048C73.0108 56.136 74.4188 56.872 75.6348 57.256C76.8508 57.64 78.2268 57.832 79.7628 57.832C82.7708 57.832 85.6188 55.944 88.3068 52.168C90.9948 48.328 92.8828 42.728 93.9708 35.368C94.2268 33.704 94.9948 32.424 96.2748 31.528C97.6188 30.632 99.0908 30.184 100.691 30.184C103.443 30.184 105.811 30.888 107.795 32.296C109.779 33.64 111.187 35.304 112.019 37.288C113.299 40.04 114.419 42.6 115.379 44.968C116.403 47.336 117.555 49.64 118.835 51.88C120.179 54.12 121.971 56.456 124.211 58.888C125.171 59.912 125.651 61.256 125.651 62.92C125.715 64.52 125.395 66.152 124.691 67.816C124.051 69.48 123.059 70.888 121.715 72.04C120.435 73.128 118.867 73.672 117.011 73.672C115.795 73.672 114.803 73.448 114.035 73C113.267 72.552 112.627 72.04 112.115 71.464C110.707 69.736 109.459 68.104 108.371 66.568C107.283 64.968 106.259 63.336 105.299 61.672C104.339 59.944 103.411 58.056 102.515 56.008C101.683 53.96 100.787 51.656 99.8268 49.096L105.587 48.52C104.179 53.384 102.483 57.448 100.499 60.712C98.5148 63.976 96.3708 66.6 94.0668 68.584C91.7628 70.504 89.3308 71.88 86.7708 72.712C84.2748 73.544 81.7148 73.96 79.0908 73.96ZM155.059 74.248C149.171 74.248 144.435 73.032 140.851 70.6C137.267 68.168 134.675 64.744 133.075 60.328C131.539 55.912 130.771 50.792 130.771 44.968C130.771 41.832 130.899 39.048 131.155 36.616C131.475 34.184 131.763 31.848 132.019 29.608C132.275 27.304 132.403 24.808 132.403 22.12C132.403 19.56 132.243 17.48 131.923 15.88C131.603 14.28 131.443 12.712 131.443 11.176C131.443 9.384 132.019 7.784 133.171 6.376C134.387 4.968 136.307 4.264 138.931 4.264C142.131 4.264 144.659 5.384 146.515 7.62399C148.371 9.864 149.299 13.8 149.299 19.432C149.299 21.032 149.203 22.728 149.011 24.52C148.819 26.312 148.595 28.232 148.339 30.28C148.083 32.264 147.859 34.44 147.667 36.808C147.475 39.112 147.379 41.64 147.379 44.392C147.379 47.72 147.763 50.376 148.531 52.36C149.299 54.344 150.419 55.752 151.891 56.584C153.427 57.416 155.315 57.832 157.555 57.832C159.027 57.832 160.243 57.704 161.203 57.448C162.163 57.128 163.027 56.84 163.795 56.584C164.563 56.264 165.395 56.104 166.291 56.104C168.019 56.104 169.331 56.616 170.227 57.64C171.123 58.664 171.571 60.264 171.571 62.44C171.571 65.768 170.291 68.584 167.731 70.888C165.171 73.128 160.947 74.248 155.059 74.248ZM145.075 41.608C142.131 42.824 139.827 42.76 138.163 41.416C136.563 40.008 135.763 38.024 135.763 35.464C135.763 33.416 136.115 31.56 136.819 29.896C137.523 28.232 139.347 26.856 142.291 25.768C144.979 24.808 147.955 24.04 151.219 23.464C154.547 22.888 157.715 22.6 160.723 22.6C165.075 22.6 168.051 23.432 169.651 25.096C171.315 26.696 172.147 28.712 172.147 31.144C172.147 32.936 171.571 34.344 170.419 35.368C169.331 36.392 167.923 36.968 166.195 37.096C163.251 37.288 160.627 37.544 158.323 37.864C156.083 38.184 153.939 38.632 151.891 39.208C149.843 39.784 147.571 40.584 145.075 41.608ZM194.028 73.96C190.572 73.96 187.532 73.352 184.908 72.136C182.284 70.92 180.236 69.224 178.764 67.048C177.292 64.808 176.556 62.216 176.556 59.272C176.556 55.944 177.1 52.552 178.188 49.096C179.34 45.576 180.908 42.248 182.892 39.112C184.876 35.912 187.148 33.064 189.708 30.568C192.268 28.072 194.988 26.12 197.868 24.712C200.748 23.24 203.628 22.504 206.508 22.504C209.196 22.504 211.468 23.4 213.324 25.192C215.18 26.92 216.108 29.416 216.108 32.68C216.108 33.768 215.788 34.632 215.148 35.272C214.572 35.848 213.868 36.232 213.036 36.424C209.068 37.128 205.548 38.728 202.476 41.224C199.404 43.72 196.972 46.696 195.18 50.152C193.452 53.544 192.588 57.096 192.588 60.808C192.588 61.704 192.652 62.536 192.78 63.304C192.908 64.008 193.132 64.904 193.452 65.992L186.348 55.048C187.948 56.136 189.356 56.872 190.572 57.256C191.788 57.64 193.164 57.832 194.7 57.832C197.708 57.832 200.556 55.944 203.244 52.168C205.932 48.328 207.82 42.728 208.908 35.368C209.164 33.704 209.932 32.424 211.212 31.528C212.556 30.632 214.028 30.184 215.628 30.184C218.38 30.184 220.748 30.888 222.732 32.296C224.716 33.64 226.124 35.304 226.956 37.288C228.236 40.04 229.356 42.6 230.316 44.968C231.34 47.336 232.492 49.64 233.772 51.88C235.116 54.12 236.908 56.456 239.148 58.888C240.108 59.912 240.588 61.256 240.588 62.92C240.652 64.52 240.332 66.152 239.628 67.816C238.988 69.48 237.996 70.888 236.652 72.04C235.372 73.128 233.804 73.672 231.948 73.672C230.732 73.672 229.74 73.448 228.972 73C228.204 72.552 227.564 72.04 227.052 71.464C225.644 69.736 224.396 68.104 223.308 66.568C222.22 64.968 221.196 63.336 220.236 61.672C219.276 59.944 218.348 58.056 217.452 56.008C216.62 53.96 215.724 51.656 214.764 49.096L220.524 48.52C219.116 53.384 217.42 57.448 215.436 60.712C213.452 63.976 211.308 66.6 209.004 68.584C206.7 70.504 204.268 71.88 201.708 72.712C199.212 73.544 196.652 73.96 194.028 73.96ZM297.43 73.96C294.486 73.96 291.958 72.84 289.846 70.6C287.734 68.36 286.102 65.064 284.95 60.712C283.862 56.296 283.318 50.824 283.318 44.296C283.318 43.272 283.286 42.376 283.222 41.608C283.158 40.84 282.998 40.168 282.742 39.592C282.55 38.952 282.23 38.408 281.782 37.96C281.334 37.448 280.758 37 280.054 36.616C281.782 36.68 283.222 36.84 284.374 37.096C285.59 37.288 286.486 37.8 287.062 38.632C287.638 39.4 287.83 40.712 287.638 42.568C286.422 41.096 285.398 40.104 284.566 39.592C283.798 39.016 282.966 38.728 282.07 38.728C280.854 38.728 279.478 39.4 277.942 40.744C276.406 42.088 274.774 44.04 273.046 46.6C271.382 49.096 269.718 52.104 268.054 55.624C266.454 59.144 264.918 63.048 263.446 67.336C262.614 69.896 261.654 71.624 260.566 72.52C259.478 73.416 257.942 73.864 255.958 73.864C252.63 73.864 250.23 72.424 248.758 69.544C247.286 66.664 246.55 62.984 246.55 58.504C246.55 55.368 246.678 52.648 246.934 50.344C247.254 48.04 247.574 45.896 247.894 43.912C248.278 41.928 248.598 39.912 248.854 37.864C249.174 35.816 249.334 33.544 249.334 31.048C249.334 28.424 249.91 26.504 251.062 25.288C252.278 24.072 254.07 23.464 256.438 23.464C258.806 23.464 260.63 24.168 261.91 25.576C263.254 26.984 263.926 29.288 263.926 32.488C263.926 34.28 263.798 35.848 263.542 37.192C263.286 38.472 262.998 39.848 262.678 41.32C262.358 42.728 262.07 44.52 261.814 46.696C261.558 48.872 261.43 51.688 261.43 55.144L257.302 49.768C259.478 43.688 262.038 38.664 264.982 34.696C267.99 30.664 271.158 27.656 274.486 25.672C277.814 23.688 281.046 22.696 284.182 22.696C287.382 22.696 290.006 23.304 292.054 24.52C294.166 25.736 295.734 27.464 296.758 29.704C297.782 31.88 298.294 34.472 298.294 37.48C298.294 41.832 298.422 45.48 298.678 48.424C298.998 51.368 299.478 53.736 300.118 55.528C300.822 57.32 301.686 58.76 302.71 59.848C303.67 60.808 304.406 61.8 304.918 62.824C305.43 63.848 305.686 65.16 305.686 66.76C305.686 68.616 304.95 70.28 303.478 71.752C302.07 73.224 300.054 73.96 297.43 73.96ZM327.06 73.96C323.604 73.96 320.564 73.352 317.94 72.136C315.316 70.92 313.268 69.224 311.796 67.048C310.324 64.808 309.588 62.216 309.588 59.272C309.588 55.944 310.132 52.552 311.22 49.096C312.372 45.576 313.94 42.248 315.924 39.112C317.908 35.912 320.18 33.064 322.74 30.568C325.3 28.072 328.02 26.12 330.9 24.712C333.78 23.24 336.66 22.504 339.54 22.504C342.228 22.504 344.5 23.4 346.356 25.192C348.212 26.92 349.14 29.416 349.14 32.68C349.14 33.768 348.82 34.632 348.18 35.272C347.604 35.848 346.9 36.232 346.068 36.424C342.1 37.128 338.58 38.728 335.508 41.224C332.436 43.72 330.004 46.696 328.212 50.152C326.484 53.544 325.62 57.096 325.62 60.808C325.62 61.704 325.684 62.536 325.812 63.304C325.94 64.008 326.164 64.904 326.484 65.992L319.38 55.048C320.98 56.136 322.388 56.872 323.604 57.256C324.82 57.64 326.196 57.832 327.732 57.832C330.74 57.832 333.588 55.944 336.276 52.168C338.964 48.328 340.852 42.728 341.94 35.368C342.196 33.704 342.964 32.424 344.244 31.528C345.588 30.632 347.06 30.184 348.66 30.184C351.412 30.184 353.78 30.888 355.764 32.296C357.748 33.64 359.156 35.304 359.988 37.288C361.268 40.04 362.388 42.6 363.348 44.968C364.372 47.336 365.524 49.64 366.804 51.88C368.148 54.12 369.94 56.456 372.18 58.888C373.14 59.912 373.62 61.256 373.62 62.92C373.684 64.52 373.364 66.152 372.66 67.816C372.02 69.48 371.028 70.888 369.684 72.04C368.404 73.128 366.836 73.672 364.98 73.672C363.764 73.672 362.772 73.448 362.004 73C361.236 72.552 360.596 72.04 360.083 71.464C358.676 69.736 357.428 68.104 356.34 66.568C355.252 64.968 354.228 63.336 353.268 61.672C352.308 59.944 351.38 58.056 350.484 56.008C349.652 53.96 348.756 51.656 347.796 49.096L353.556 48.52C351.636 54.984 349.268 60.072 346.452 63.784C343.636 67.496 340.564 70.12 337.236 71.656C333.908 73.192 330.516 73.96 327.06 73.96Z" fill="white"/>
</svg>
